<svg width="683" height="879" viewBox="0 0 683 879" fill="none" xmlns="http://www.w3.org/2000/svg">
<path fill-rule="evenodd" clip-rule="evenodd" d="M381.174 446.145C382.029 447.74 382.601 449.47 382.865 451.259L386 513.939C385.841 514.848 385.371 515.674 384.671 516.278C383.97 516.882 383.082 517.226 382.157 517.252C381.435 517.233 380.731 517.016 380.125 516.625C379.518 516.233 379.031 515.683 378.718 515.034L376.609 491.451C376.541 491.193 376.374 490.972 376.145 490.835C375.915 490.698 375.641 490.655 375.381 490.717C375.182 490.787 375.01 490.918 374.891 491.091C374.771 491.265 374.71 491.472 374.716 491.682L376.58 522.337C376.682 523.483 376.322 524.623 375.581 525.505C374.84 526.387 373.778 526.939 372.629 527.041C371.479 527.142 370.336 526.784 369.452 526.045C368.567 525.306 368.013 524.247 367.911 523.101C367.314 512.892 366.712 502.683 366.105 492.474C366.125 492.349 366.115 492.221 366.077 492.1C366.039 491.979 365.973 491.869 365.884 491.778C365.796 491.686 365.688 491.617 365.568 491.574C365.448 491.532 365.32 491.517 365.194 491.533C365.068 491.547 364.947 491.591 364.841 491.661C364.734 491.73 364.646 491.823 364.581 491.933C364.517 492.042 364.479 492.165 364.47 492.291C364.461 492.418 364.482 492.544 364.531 492.661C364.733 504.253 364.926 515.855 365.109 527.466C365.162 528.607 364.775 529.726 364.026 530.592C363.277 531.457 362.224 532.003 361.083 532.118C359.943 532.232 358.801 531.906 357.895 531.207C356.988 530.508 356.384 529.488 356.209 528.359L354.908 493.54C354.88 493.348 354.787 493.172 354.644 493.04C354.502 492.908 354.318 492.829 354.124 492.816C353.93 492.802 353.738 492.855 353.578 492.966C353.418 493.077 353.302 493.239 353.247 493.425L354.273 523.879C354.316 524.514 354.23 525.151 354.022 525.752C353.813 526.354 353.486 526.907 353.059 527.38C352.632 527.853 352.114 528.236 351.535 528.505C350.957 528.775 350.331 528.926 349.693 528.949C348.696 528.874 347.75 528.48 346.995 527.826C346.241 527.172 345.717 526.293 345.503 525.319C344.819 510.462 344.13 495.576 343.437 480.661C337.976 486.986 332.717 490.818 329.683 490.746C328.624 490.749 327.588 490.438 326.707 489.852C325.661 488.96 325.012 487.691 324.901 486.323C327.787 483.706 330.171 480.587 331.937 477.118C332.99 475.018 333.489 473.424 334.142 471.343C334.528 470.112 334.967 468.71 335.606 466.933C337.019 463.006 338.708 459.183 340.663 455.495L348.19 448.191L345.301 432.273L321.939 313.67L314.903 292.062L311.84 345.997L317.084 433.425L294.734 437.243L307.482 852.933H275.632L262.746 442.674L220.024 449.977V450.107L219.663 450.035L219.288 450.107V449.977L170.844 441.694L168.672 852.933H138.407L138.973 436.277L122.314 433.396L127.545 345.968L124.496 292.033L104.399 336.979C104.399 336.979 95.1094 368.455 69.3491 368.844C43.5887 369.233 36.9717 345.147 36.9717 345.147L18.7532 201.623H18.6665L17.3373 189.752C17.3373 189.752 13.2775 187.865 12.3384 186.424C11.2677 184.859 10.4803 183.118 10.0123 181.282L0 116.456C0.0708008 115.494 0.471191 114.585 1.13403 113.882C1.79688 113.179 2.68188 112.725 3.64087 112.595C4.3938 112.54 5.14746 112.694 5.81812 113.04C6.48889 113.386 7.05042 113.91 7.44055 114.554C9.03943 122.641 10.6095 130.718 12.1505 138.785C12.1974 138.916 12.2698 139.036 12.3635 139.139C12.4573 139.242 12.5707 139.325 12.6969 139.384C12.8232 139.443 12.96 139.477 13.0994 139.482C13.2386 139.488 13.3778 139.467 13.5087 139.419C13.7048 139.324 13.8662 139.17 13.97 138.979C14.0736 138.787 14.1144 138.568 14.0865 138.353C12.3335 127.788 10.5757 117.224 8.81311 106.66C8.65076 105.461 8.96472 104.246 9.68811 103.274C10.4115 102.303 11.4869 101.652 12.6851 101.46C13.8058 101.325 14.9371 101.603 15.866 102.243C16.7947 102.882 17.4568 103.839 17.7274 104.931C19.4707 115.495 21.2092 126.06 22.943 136.624C22.941 136.752 22.9683 136.88 23.0227 136.996C23.077 137.112 23.1572 137.215 23.2571 137.296C23.3571 137.377 23.4741 137.435 23.5995 137.464C23.7249 137.494 23.8552 137.495 23.981 137.467C24.1067 137.439 24.2245 137.383 24.3253 137.303C24.4263 137.223 24.5077 137.121 24.5635 137.005C24.6194 136.89 24.6481 136.763 24.6477 136.634C24.6473 136.506 24.6177 136.379 24.5612 136.264C23.126 124.23 21.6813 112.192 20.2268 100.149C20.0983 98.9924 20.4073 97.83 21.0935 96.8892C21.7798 95.9484 22.7935 95.297 23.9363 95.0626C25.079 94.8282 26.2683 95.0278 27.2712 95.6222C28.274 96.2166 29.0182 97.163 29.3578 98.2759C31.0723 110.271 32.7867 122.276 34.5012 134.29C34.5675 134.502 34.707 134.683 34.8948 134.802C35.0826 134.921 35.3066 134.969 35.527 134.938C35.7013 134.903 35.8612 134.817 35.9871 134.691C36.1128 134.566 36.199 134.406 36.2349 134.233C34.819 123.745 33.3743 113.219 31.9006 102.655C31.7898 102 31.8115 101.329 31.9647 100.682C32.1179 100.035 32.3993 99.4247 32.7924 98.8878C33.1855 98.3509 33.6824 97.8978 34.2537 97.5552C34.8251 97.2126 35.4594 96.9874 36.1194 96.8929C37.1498 96.8857 38.1562 97.2037 38.9944 97.8015C39.8326 98.3992 40.4597 99.246 40.7859 100.221C43.1361 115.673 45.4718 131.083 47.7931 146.449C52.792 139.303 57.8488 134.766 60.9983 134.492C62.1006 134.379 63.2118 134.595 64.1913 135.111C64.7809 135.515 65.2848 136.031 65.6741 136.629C66.0632 137.227 66.3302 137.896 66.4596 138.598C63.7413 141.623 61.6102 145.125 60.1748 148.926C59.2959 151.236 58.9507 152.95 58.496 155.208C58.233 156.513 57.9335 158 57.473 159.889C56.4247 164.126 55.0826 168.285 53.4565 172.336L46.4351 180.821L50.2203 191.697L69.0023 243.644L84.8949 198.756C96.7275 153.032 123.138 155.351 123.138 155.351L182.952 147.14C183.751 133.512 184.555 119.894 185.364 106.285C181.397 99.2569 179.067 91.4286 178.545 83.3804C177.403 83.4124 176.289 83.0297 175.409 82.3035C174.53 81.5775 173.945 80.5574 173.763 79.4332C172.925 75.2843 166.741 62.8378 166.741 62.8378C166.741 62.8378 161.468 53.0275 173.792 50.7946L178.372 50.5353C177.664 47.7118 173.517 30.3817 184.151 15.8463C195.709 0 215.618 0 222.437 0C229.733 0 246.623 0.0144043 257.849 13.3253C271.646 29.6902 264.697 51.6877 264.191 53.1283C264.191 53.1283 274.825 48.3456 277.917 57.4501C280.055 63.8606 275.215 74.0742 272.137 79.5773C271.496 80.7419 270.543 81.7069 269.386 82.3654C268.228 83.0239 266.91 83.3502 265.578 83.3083H264.885C264.332 94.0066 260.678 104.315 254.367 112.984L256.389 147.068L316.189 155.279C316.189 155.279 342.599 152.96 354.446 198.684L375.699 298.991L376.898 431.668C376.898 431.668 378.083 438.914 378.805 442.846C379.737 443.837 380.534 444.946 381.174 446.145Z" transform="translate(121 28.067)" fill="#ECC9A9"/>
<path fill-rule="evenodd" clip-rule="evenodd" d="M0.632202 384.171L0 0L202.008 4.20645L201.311 384.171H135.862L99.2415 85.7429L71.0728 384.171H0.632202Z" transform="translate(240.858 496.829)" fill="#03254C"/>
<g opacity="0.4">
<path opacity="0.4" d="M0.776343 28.9123C0.124028 25.8704 -0.118905 22.7553 0.0539569 19.6494C0.198351 16.5123 0.913077 13.4274 2.16333 10.545C3.40156 7.60324 5.43788 5.06399 8.04355 3.21247C10.6705 1.45404 13.6835 0.352168 16.8278 0V0.0864309C13.87 0.891477 11.0808 2.21859 8.59257 4.0048C6.14239 5.8011 4.16049 8.15763 2.81348 10.8763C1.51206 13.6515 0.72405 16.6382 0.48739 19.6926C0.188609 22.7617 0.295472 25.8566 0.805239 28.8979L0.776343 28.9123Z" transform="translate(147.14 180.854)" fill="#1F476A"/>
</g>
<g opacity="0.4">
<path opacity="0.4" d="M0 10.156C0.736834 8.39853 1.51701 6.65545 2.31163 4.91236C2.66816 4.02878 3.07827 3.16765 3.53969 2.33373C4.02085 1.49612 4.59253 0.713539 5.24453 0H5.33121C5.12797 0.94434 4.81776 1.8626 4.40656 2.73709C3.97686 3.59667 3.49435 4.42899 2.96178 5.22929C2.00823 6.88594 1.02579 8.52818 0.0722375 10.156H0Z" transform="translate(163.549 174.501)" fill="#1F476A"/>
</g>
<g opacity="0.4">
<path opacity="0.4" d="M0 9.92671C5.88692 6.68607 12.1447 4.16604 18.6376 2.42132C21.88 1.49817 25.1886 0.823927 28.5343 0.404518C31.89 0.00961871 35.2737 -0.0964168 38.6477 0.0875899V0.18843C35.3102 0.534167 31.9873 0.836698 28.6932 1.36971C25.3991 1.90272 22.1195 2.40691 18.8687 3.18482C12.3715 4.75281 6.07131 7.04327 0.0866863 10.0131L0 9.92671Z" transform="translate(126.996 164.171)" fill="#1F476A"/>
</g>
<path d="M252.806 325.497C249.406 283.145 246.006 240.787 242.606 198.424L245.655 144.489L246.42 134.809L300.079 119.423L285.27 51.1403C273.438 5.41657 247.027 7.73588 247.027 7.73588L190.768 0C179.194 9.36795 164.749 14.4966 149.842 14.5307C134.934 14.5647 120.466 9.50221 108.849 0.187282L53.9478 7.73588C53.9478 7.73588 27.5374 5.41657 15.7047 51.1403L0 96.1006L4.86888 110.204L54.5402 132.115L55.3203 144.489L58.3833 198.424L50.856 321.291C83.9558 329.52 117.883 333.99 151.99 334.616C171.494 334.857 190.995 333.933 210.388 331.85C227.017 330.107 241.378 327.701 252.806 325.497Z" transform="translate(190.06 175.538)" fill="#306283"/>
<path d="M0 0C16.7449 7.56301 33.2298 15.7023 50.3359 22.4297" transform="translate(194.683 285.656)" stroke="#03254C" stroke-width="2" stroke-miterlimit="10"/>
<path d="M29.9449 0.469564C30.0354 0.450931 30.1289 0.450931 30.2194 0.469564C30.4545 0.555868 30.6498 0.724966 30.7684 0.944956L30.8551 8.65202C30.8584 8.9214 30.8047 9.18845 30.6976 9.43574C30.5904 9.68303 30.4321 9.90501 30.233 10.0872C30.034 10.2693 29.7986 10.4076 29.5423 10.4929C29.2861 10.5783 29.0146 10.6087 28.7457 10.5824C18.5456 9.68924 10.8017 8.78168 7.07414 8.16223C6.88929 8.13317 6.70606 8.0947 6.52514 8.04698C2.08969 6.98096 -0.799864 1.44916 0.197029 0.282294C0.341506 0.109425 0.644913 -0.063444 1.35285 0.0229903L29.9449 0.469564Z" transform="translate(327.16 117.95)" fill="white"/>
<path d="M15.2713 2.37695C14.1666 3.53295 12.7687 4.36925 11.2259 4.79711C9.90259 5.17327 8.51621 5.2762 7.15162 5.09963C5.7887 4.91543 4.47685 4.45982 3.29408 3.7599C1.91898 2.93691 0.783436 1.7699 0 0.374541L0.101145 0L3.872 0.677071C5.12896 0.893157 6.40035 1.06602 7.6573 1.21008C8.91425 1.35413 10.1857 1.55581 11.4571 1.67106L15.2857 1.98799L15.2713 2.37695Z" transform="translate(335.751 129.772)" fill="#09A1B6"/>
<path d="M3.61193 7.20286C5.60675 7.20286 7.22386 5.59045 7.22386 3.60143C7.22386 1.61242 5.60675 0 3.61193 0C1.61712 0 0 1.61242 0 3.60143C0 5.59045 1.61712 7.20286 3.61193 7.20286Z" transform="translate(319.584 80.0861)" fill="#306283"/>
<path d="M0 4.34103C0.288739 3.23804 0.884809 2.23912 1.71926 1.45988C3.68415 -0.297615 6.41478 -0.0815316 9.69441 0.163366C12.0364 0.36714 14.3453 0.850798 16.5715 1.60394L16.7594 4.0385" transform="translate(313.502 78.4534)" stroke="#306283" stroke-miterlimit="10"/>
<path d="M4.68107 34.8763C3.05793 34.8165 1.46449 34.4242 0 33.7238L0.606802 32.4129C1.45922 32.8162 4.43545 34.0407 6.45814 33.09C6.79406 32.9441 7.09461 32.7279 7.33945 32.4561C7.65949 32.0282 7.88214 31.5359 7.99193 31.0134C8.10171 30.491 8.09599 29.9509 7.97515 29.4309L3.82864 0.201679L5.27341 0L9.40546 29.2004C9.56787 29.9348 9.56398 30.696 9.39402 31.4287C9.22407 32.1614 8.89234 32.847 8.42303 33.4357C8.0509 33.8411 7.59825 34.1649 7.09384 34.3865C6.33623 34.7269 5.51188 34.8943 4.68107 34.8763Z" transform="translate(342.368 76.4127)" fill="#0F3358"/>
<path d="M3.19296 34.3C2.11346 34.2934 1.03966 34.1433 0 33.8535L0.390095 32.4129C3.5108 33.2628 6.4148 32.6866 7.44059 30.9723C7.72953 30.4634 7.87434 29.8858 7.85957 29.3013L3.72752 0.201679L5.17229 0L9.30434 29.2004C9.34538 30.0829 9.12964 30.9584 8.6831 31.7214C8.07043 32.5886 7.24229 33.2823 6.27985 33.7343C5.31742 34.1863 4.2537 34.3813 3.19296 34.3Z" transform="translate(342.469 76.3262)" fill="#306283"/>
<path d="M0.000677764 1.43839L0.737504 5.44318C0.757503 5.52464 0.793886 5.60122 0.844447 5.66824C0.895007 5.73527 0.958707 5.79136 1.03166 5.83312C1.10461 5.87488 1.1853 5.90143 1.26884 5.91117C1.35239 5.9209 1.43705 5.91362 1.51769 5.88976C5.25966 5.2559 23.3338 2.46119 28.9684 6.61004C29.4741 6.999 30.312 6.52361 30.1242 5.97619C29.0262 2.92217 23.7816 -1.83172 0.723064 0.732503C0.627828 0.726334 0.532345 0.740255 0.442866 0.77335C0.353388 0.806446 0.271923 0.857972 0.203761 0.924577C0.135599 0.991181 0.0822744 1.07137 0.0472819 1.1599C0.0122894 1.24843 -0.00358411 1.34332 0.000677764 1.43839Z" transform="translate(351.917 68.7222)" fill="#306283"/>
<path d="M30.3513 0.972136L29.4122 5.00574C29.3539 5.16644 29.2412 5.30184 29.0935 5.3886C28.9458 5.47537 28.7724 5.50809 28.6032 5.48113C24.9045 5.00574 6.93157 3.00335 1.15248 7.36828C0.632361 7.77164 -0.191155 7.36828 0.0400084 6.77764C1.28251 3.69482 6.78709 -1.26075 29.6867 0.295065C29.7776 0.285684 29.8694 0.296878 29.9553 0.327806C30.0412 0.358734 30.119 0.408598 30.1829 0.473686C30.2468 0.538773 30.2951 0.617404 30.3243 0.70371C30.3535 0.790016 30.3627 0.88177 30.3513 0.972136Z" transform="translate(305.385 69.102)" fill="#306283"/>
<path d="M3.61193 7.20286C5.60675 7.20286 7.22386 5.59045 7.22386 3.60143C7.22386 1.61242 5.60675 0 3.61193 0C1.61712 0 0 1.61242 0 3.60143C0 5.59045 1.61712 7.20286 3.61193 7.20286Z" transform="translate(361.728 81.5267)" fill="#306283"/>
<path d="M16.7594 4.34103C16.4587 3.23973 15.8587 2.24266 15.0256 1.45988C13.0607 -0.297615 10.3301 -0.0815316 7.05048 0.163366C4.70851 0.36714 2.39959 0.850798 0.173366 1.60394L0 4.0385" transform="translate(358.289 79.894)" stroke="#306283" stroke-miterlimit="10"/>
<path d="M13.0509 100.845C12.0829 80.2302 9.04887 64.744 9.26559 58.3767C9.54259 54.5221 8.8003 50.6625 7.11288 47.1834C6.41357 45.812 5.55002 44.5301 4.54117 43.3659C2.02242 40.3672 0.471396 36.6794 0.0914888 32.7863C-0.288419 28.8931 0.520534 24.9764 2.41226 21.5497C4.30399 18.1231 7.19017 15.3464 10.6923 13.584C14.1944 11.8215 18.149 11.1555 22.0374 11.6733C22.1437 8.41831 23.4925 5.32661 25.8082 3.02989C27.4436 1.64405 29.3921 0.67509 31.4862 0.20637C39.418 -1.46469 48.2456 7.40923 58.1712 12.5233C76.7509 22.2327 88.0635 13.6469 97.6568 23.486C100.546 26.4536 103.884 31.8269 104.086 42.2135C104.086 42.2135 109.07 44.3743 107.814 51.7933C106.687 58.4055 102.034 91.1641 100.994 98.1221C100.934 98.5192 100.768 98.8931 100.514 99.2047C100.26 99.5163 99.9271 99.7543 99.5495 99.894L97.9313 100.528L98.3936 77.5795C98.3936 77.5795 99.4917 70.8088 95.5041 67.4955C94.7943 66.8934 94.2173 66.1511 93.8095 65.3156C93.4017 64.48 93.1719 63.5693 93.1347 62.6408L92.4123 48.7537C92.371 47.834 91.9695 46.9673 91.2941 46.3396C90.6187 45.712 89.7233 45.3736 88.8003 45.3971C76.1441 45.6997 32.4542 46.636 22.2685 45.6132C22.0161 45.5884 21.7612 45.6177 21.5211 45.6992C21.2809 45.7808 21.0611 45.9127 20.8763 46.086C20.6915 46.2593 20.5461 46.4701 20.4498 46.7041C20.3535 46.9381 20.3086 47.19 20.3181 47.4428L20.8382 60.7536C20.926 62.7562 20.3357 64.73 19.1623 66.3575C17.024 69.2386 13.8889 75.6348 15.1603 87.361L15.3914 100.787L13.0509 100.845Z" transform="translate(286.509)" fill="#306283"/>
<g opacity="0.7">
<path opacity="0.7" d="M0 0C6.10523 0.26907 11.9995 2.30653 16.9616 5.86313C19.4466 7.67825 21.5127 9.88233 23.8532 11.5534C26.1541 13.2807 28.7549 14.57 31.525 15.3565C32.8935 15.7251 34.2986 15.9425 35.7148 16.0048C37.1596 16.0048 38.6043 16.0048 40.0491 15.8607C41.6036 15.7223 43.1687 15.7561 44.7157 15.9615C46.3187 16.1733 47.8593 16.718 49.2379 17.5606C51.8763 19.1819 54.1215 21.3664 55.8116 23.9567C57.4564 26.4816 58.7675 29.2076 59.7125 32.0671C58.4308 29.3908 56.856 26.864 55.017 24.533C53.2479 22.2313 51.0256 20.3145 48.4866 18.9003C47.2595 18.2366 45.9153 17.8159 44.5279 17.6614C43.0877 17.5001 41.6338 17.5001 40.1936 17.6614C38.6719 17.8142 37.1431 17.8863 35.6137 17.8775C34.0425 17.8249 32.4822 17.5978 30.9615 17.2004C27.9666 16.3274 25.1632 14.9004 22.6974 12.994C20.3424 11.1356 18.2764 8.91714 16.0081 7.01559C13.7415 5.1612 11.2154 3.64701 8.50971 2.521C5.77859 1.36053 2.92354 0.514722 0 0Z" transform="translate(310.15 11.7166)" fill="#0D8E9B"/>
</g>
<g opacity="0.7">
<path opacity="0.7" d="M8.11607 0.0586727C6.42399 0.501895 4.9662 1.57403 4.04183 3.05506C3.17484 4.50302 2.57312 6.09322 2.26476 7.75133C1.9539 9.48545 1.74644 11.2364 1.6435 12.995C1.6435 13.4416 1.6435 13.8882 1.55682 14.3492C1.47013 14.8101 1.48457 15.2567 1.48457 15.7033C1.48457 16.6109 1.41233 17.5328 1.29675 18.4692C0.978895 17.5904 0.762181 16.6829 0.531017 15.7753C0.332868 14.868 0.192933 13.9489 0.112043 13.0238C-0.0880098 11.1366 -0.0199163 9.23064 0.31431 7.36238C0.676119 5.42045 1.543 3.60729 2.82822 2.10429C3.45893 1.33886 4.2769 0.748484 5.20316 0.39016C6.12942 0.0318373 7.13266 -0.0823334 8.11607 0.0586727Z" transform="translate(383.634 43.3505)" fill="#0D8E9B"/>
</g>
<path opacity="0.1" d="M86.7307 4.06241C86.628 2.98441 86.628 1.89913 86.7307 0.821126C86.7458 0.720843 86.7458 0.61889 86.7307 0.518607C86.7307 0.201681 86.4707 0.0720286 86.1673 0C85.2521 0.125556 84.4172 0.588062 83.8268 1.29652C81.6452 3.67346 77.3975 13.8439 75.317 17.3733C73.6411 20.2544 70.4915 23.6686 63.99 26.2616C65.7093 42.6554 63.2387 47.5965 60.4359 48.8498C56.4772 50.6217 52.9086 44.6145 44.1533 44.3985C34.3722 44.168 29.8211 51.3564 25.5591 49.2964C22.9729 48.0431 20.6757 43.4333 22.6695 28.0335C13.7986 23.7118 10.5768 18.9435 9.34872 15.1836C9.34872 15.1836 6.5603 6.64104 3.12174 2.21848C2.63575 1.59593 1.95385 1.15448 1.18575 0.965181H1.08462C0.564497 0.965181 0.0732663 1.06602 0.0154754 1.527C-0.00515845 1.62679 -0.00515845 1.72973 0.0154754 1.82952C0.0804922 2.90417 0.0804922 3.98176 0.0154754 5.05641C0.0154754 6.98678 0.0154754 11.2653 0.0154754 12.1008C0.0154754 16.4225 2.1104 28.9843 10.2011 40.3937C12.2247 43.2681 14.5389 45.9279 17.1071 48.3312C19.1273 50.2494 21.3454 51.9491 23.7242 53.402C47.1006 67.1739 63.8311 53.402 64.9147 52.4657L65.0447 52.3648C67.1885 50.8526 69.1992 49.161 71.055 47.3084C73.443 44.8884 75.5734 42.2284 77.412 39.3709C82.4974 31.3906 85.6529 22.341 86.6296 12.9363C86.884 9.98497 86.9178 7.0188 86.7307 4.06241Z" transform="translate(299.544 99.3033)" fill="#03254C"/>
<g opacity="0.1">
<path d="M39.5225 7.75511C39.6022 7.06109 39.5079 6.35821 39.248 5.7095C38.9811 5.08938 38.5581 4.5485 38.0199 4.13927L37.8466 3.7215C37.8422 3.85126 37.883 3.97852 37.9621 4.08164H37.8466L37.6154 3.952C37.4677 3.85473 37.3132 3.76807 37.1531 3.69269C36.855 3.52078 36.5262 3.40824 36.1851 3.36136L35.7227 3.27493H35.1304H34.538H33.9023C32.2264 3.27493 30.4782 3.27493 28.7445 3.27493C25.2481 3.27493 21.7373 3.36136 18.2265 3.27493C14.7157 3.18849 11.1761 3.27493 7.65082 3.08766C6.75506 3.08766 5.87374 3.08765 4.97798 2.958C4.21033 2.86381 3.434 2.86381 2.66635 2.958C2.33922 3.00154 2.02396 3.10924 1.73879 3.2749C1.45362 3.44056 1.20417 3.66089 1.00485 3.92318C0.615711 4.50725 0.386606 5.18268 0.340269 5.88236C0.00656208 5.18772 -0.0849756 4.40188 0.0801985 3.64948C0.202263 3.17322 0.436264 2.73276 0.762859 2.36453C1.08945 1.9963 1.49927 1.71087 1.95841 1.53183C2.88607 1.18806 3.85996 0.984135 4.84795 0.926796C5.72926 0.825956 6.61058 0.725113 7.49189 0.653084C11.0171 0.326554 14.5568 0.120072 18.111 0.0336374C21.6651 -0.052797 25.2337 0.0336334 28.8167 0.220908C30.6082 0.364965 32.3998 0.509031 34.2202 0.825957L34.9137 0.941194L35.6216 1.09966L36.3151 1.28694C36.5752 1.28694 36.8497 1.47421 37.1097 1.57505C37.575 1.75626 38.0088 2.00903 38.3956 2.32415C38.5787 2.46648 38.7525 2.62046 38.9157 2.78514L39.1469 3.03003L39.248 3.15968L39.3202 3.23171C39.4035 3.33899 39.4492 3.47058 39.4503 3.60626L39.2769 3.1885C39.7801 3.81652 40.0636 4.59127 40.0845 5.39482C40.1054 6.19837 39.8624 6.98671 39.3925 7.63986L39.5225 7.75511Z" transform="translate(322.755 113.157)" fill="#03254C"/>
</g>
<path opacity="0.1" d="M56.0283 0C42.0111 10.5264 31.4216 24.9438 25.5869 41.4453C15.748 70.2567 28.8955 82.516 19.9812 120.057C13.7109 146.477 4.43545 152.024 1.96489 179.121C0.520119 195.154 0 220.897 0 220.897L61.5762 215.279L51.4628 88.2783L56.0283 0Z" transform="translate(381.29 285.771)" fill="#03254C"/>
<path d="M4.40656 79.4188L1.87821 39.731C1.45923 33.1188 0.982455 26.5065 0.664605 19.8799C0.346755 13.2533 0.0866864 6.62664 0 0H0.101134C0.751281 6.59782 1.19916 13.21 1.64704 19.8223C2.09492 26.4345 2.35499 33.0612 2.65839 39.6878L4.55104 79.4044L4.40656 79.4188Z" transform="translate(241.927 256.383)" fill="#1F476A"/>
<path d="M0 104.744L2.2683 52.3504L2.83176 39.2556L3.48191 26.1752C4.00203 17.4454 4.50771 8.71547 5.23009 0H5.31678C5.1723 8.74428 4.79666 17.4742 4.46436 26.204L3.79976 39.2988L3.04847 52.3792L0.158926 104.73L0 104.744Z" transform="translate(432.724 269.291)" fill="#1F476A"/>
<path opacity="0.1" d="M12.0989 0C9.61621 2.40829 7.58993 5.24366 6.11752 8.36972C1.40756 18.4537 5.71298 25.7286 5.30845 39.9183C4.9617 51.8462 1.76875 51.9182 0.425106 65.2579C-0.553224 75.1643 0.160005 85.1643 2.53447 94.8329L15.8119 65.2291L12.0989 0Z" transform="translate(229.439 254.871)" fill="#03254C"/>
<path d="M0 0C11.5518 8.98176 25.7727 13.8752 40.4215 13.9091C55.0702 13.943 69.3138 9.11547 80.9073 0.187281" transform="translate(299.083 177.959)" stroke="#1F476A" stroke-width="3" stroke-miterlimit="10"/>
<path d="M0 0C7.64285 8.75868 18.2764 13.0516 22.943 15.0972C47.0129 25.6278 69.4936 15.2124 72.0653 13.9303C81.0951 9.60862 90.0238 3.74549 93.3612 0" transform="translate(293.491 178.031)" stroke="#1F476A" stroke-miterlimit="10"/>
<path d="M0.0722375 0L9.31879 25.3685C10.8502 29.5894 12.4395 33.8102 13.8698 38.0743C15.3001 42.3384 16.6871 46.6745 17.9152 50.9963H17.8141C16.0659 46.833 14.52 42.6121 12.9452 38.3913C11.3704 34.1704 10.0556 29.8919 8.61084 25.6278L0 0.0287956L0.0722375 0Z" transform="translate(187.46 264.494)" fill="#1F476A"/>
<path d="M54.1934 0L0 15.3853" transform="translate(435.946 294.962)" stroke="#03254C" stroke-width="2" stroke-miterlimit="10"/>
<path opacity="0.1" d="M53.5866 11.425C46.119 12.1637 38.5889 10.9057 31.7706 7.78031C25.8325 4.89917 23.232 1.71549 17.0483 0.433385C11.783 -0.519596 6.35254 0.107107 1.44477 2.2341C0.95355 10.4262 0.471959 18.6182 0 26.8103L53.5866 11.425Z" transform="translate(436.278 283.537)" fill="#03254C"/>
<path opacity="0.5" d="M0 0C1.82068 2.69111 3.93847 5.17 6.31365 7.39013C8.97203 9.86792 18.6665 18.9147 33.0564 19.1164C49.9169 19.3613 60.6805 7.2893 62.2697 5.45977C61.0705 7.39014 52.7342 20.2977 37.2318 22.2713C22.3795 24.1728 7.10828 15.2845 0 0Z" transform="translate(309.89 139.539)" fill="#09A1B6"/>
<path d="M32.8811 0H638.678L683 118H0L32.8811 0Z" transform="translate(0 459)" fill="#16385E"/>
<rect width="683" height="14" transform="translate(0 577)" fill="#306283"/>
<path d="M20 0H40L10 290H0L20 0Z" transform="translate(672 591) scale(-1 1)" fill="#306283"/>
<path d="M0 0H20L10 290H0V0Z" transform="translate(612 591) scale(-1 1)" fill="#306283"/>
<path d="M0 32.5V0H20L18.5 36L0 32.5Z" transform="translate(612 591) scale(-1 1)" fill="url(#paint0_linear)"/>
<path d="M0 32.5L2 0H22L18.5 36.5L0 32.5Z" transform="translate(654 591) scale(-1 1)" fill="url(#paint1_linear)"/>
<path d="M20 0H40L10 290H0L20 0Z" transform="translate(12 591)" fill="#306283"/>
<path d="M0 0H20L10 290H0V0Z" transform="translate(72 591)" fill="#306283"/>
<path d="M0 32.5V0H20L18.5 36L0 32.5Z" transform="translate(72 591)" fill="url(#paint2_linear)"/>
<path d="M0 32.5L2 0H22L18.5 36.5L0 32.5Z" transform="translate(30 591)" fill="url(#paint3_linear)"/>
<path d="M0.0375918 5.03731C0.016876 2.26138 2.26145 0 5.03745 0H214.887C217.692 0 219.948 2.30738 219.886 5.11191L217.109 129.112C217.049 131.829 214.829 134 212.111 134H5.96283C3.21596 134 0.983463 131.784 0.962965 129.037L0.0375918 5.03731Z" transform="translate(285 382)" fill="url(#paint4_linear)"/>
<path d="M17.9058 3.51308C18.5566 1.42345 20.4909 0 22.6796 0H262.347C266.741 0 268.998 5.26095 265.97 8.44531L217.478 59.4453C216.534 60.438 215.225 61 213.855 61H6.79431C3.42306 61 1.01796 57.7318 2.02052 54.5131L17.9058 3.51308Z" transform="translate(286 577) scale(1 -1)" fill="#306283" fill-opacity="0.1"/>
<circle cx="12.5" cy="12.5" r="12.5" transform="translate(383 437)" fill="white"/>
<defs>
<linearGradient id="paint0_linear" x2="1" gradientUnits="userSpaceOnUse" gradientTransform="translate(20) scale(20 23) rotate(90)">
<stop stop-color="#16385E" stop-opacity="0.61"/>
<stop offset="1" stop-color="#16385E" stop-opacity="0"/>
</linearGradient>
<linearGradient id="paint1_linear" x2="1" gradientUnits="userSpaceOnUse" gradientTransform="translate(22) scale(20 23) rotate(90)">
<stop stop-color="#16385E" stop-opacity="0.61"/>
<stop offset="1" stop-color="#16385E" stop-opacity="0"/>
</linearGradient>
<linearGradient id="paint2_linear" x2="1" gradientUnits="userSpaceOnUse" gradientTransform="translate(20) scale(20 23) rotate(90)">
<stop stop-color="#16385E" stop-opacity="0.61"/>
<stop offset="1" stop-color="#16385E" stop-opacity="0"/>
</linearGradient>
<linearGradient id="paint3_linear" x2="1" gradientUnits="userSpaceOnUse" gradientTransform="translate(22) scale(20 23) rotate(90)">
<stop stop-color="#16385E" stop-opacity="0.61"/>
<stop offset="1" stop-color="#16385E" stop-opacity="0"/>
</linearGradient>
<linearGradient id="paint4_linear" x2="1" gradientUnits="userSpaceOnUse" gradientTransform="matrix(-221.5 132.5 -223.47 -373.575 346.735 188.287)">
<stop stop-color="#EEEEEE"/>
<stop offset="1" stop-color="#CDCDCD"/>
</linearGradient>
</defs>
</svg>
