<svg width="64" height="59" viewBox="0 0 64 59" fill="none" xmlns="http://www.w3.org/2000/svg">
<path d="M0 7.92492C0 12.2973 3.52798 15.8498 7.8701 15.8498C12.2122 15.8498 15.7402 12.2973 15.7402 7.92492C15.7402 3.55255 12.2122 0 7.8701 0C3.52798 0 0 3.55255 0 7.92492Z" fill="white"/>
<path d="M51.0501 0.539183L53.4624 2.90755C60.1264 9.43574 63.5639 18.3627 62.9306 27.8058C61.9054 43.4127 49.452 56.0743 33.9832 57.2889C26.4447 57.8658 19.4189 55.7707 13.7199 51.8234V55.4974C13.7199 56.5298 12.8756 57.38 11.8504 57.38H1.86953C0.844302 57.38 0 56.5298 0 55.4974V25.6499V22.2492V22.1885C0 21.1561 0.844302 20.3059 1.86953 20.3059H11.8504C12.8756 20.3059 13.7199 21.1561 13.7199 22.1885V22.2492V25.2856C13.7199 34.6983 20.806 42.8054 30.1235 43.5038C40.5566 44.2932 49.271 35.9736 49.271 25.6499C49.271 20.7614 47.3412 16.2068 43.8434 12.8061L41.3406 10.377C40.5868 9.64828 40.5868 8.43374 41.3105 7.70501L48.3664 0.59991C49.1504 -0.189545 50.3264 -0.189545 51.0501 0.539183Z" transform="translate(0.995056 1.61664)" fill="white"/>
</svg>
