<svg width="683" height="422" fill="none" xmlns="http://www.w3.org/2000/svg"><path d="M32.8811 0H638.678L683 118H0L32.8811 0z" fill="#16385E"/><path fill="#306283" d="M0 118h683v14H0zM652 132h-20l30 290h10l-20-290zM612 132h-20l10 290h10V132z"/><path d="M0 32.5V0h20l-1.5 36L0 32.5z" transform="matrix(-1 0 0 1 612 132)" fill="url(#paint0_linear)"/><path d="M0 32.5L2 0h20l-3.5 36.5-18.5-4z" transform="matrix(-1 0 0 1 654 132)" fill="url(#paint1_linear)"/><path d="M32 132h20L22 422H12l20-290zM72 132h20L82 422H72V132z" fill="#306283"/><path d="M0 32.5V0h20l-1.5 36L0 32.5z" transform="translate(72 132)" fill="url(#paint2_linear)"/><path d="M0 32.5L2 0h20l-3.5 36.5-18.5-4z" transform="translate(30 132)" fill="url(#paint3_linear)"/><defs><linearGradient id="paint0_linear" x2="1" gradientUnits="userSpaceOnUse" gradientTransform="matrix(0 23 -20 0 20 0)"><stop stop-color="#16385E" stop-opacity=".61"/><stop offset="1" stop-color="#16385E" stop-opacity="0"/></linearGradient><linearGradient id="paint1_linear" x2="1" gradientUnits="userSpaceOnUse" gradientTransform="matrix(0 23 -20 0 22 0)"><stop stop-color="#16385E" stop-opacity=".61"/><stop offset="1" stop-color="#16385E" stop-opacity="0"/></linearGradient><linearGradient id="paint2_linear" x2="1" gradientUnits="userSpaceOnUse" gradientTransform="matrix(0 23 -20 0 20 0)"><stop stop-color="#16385E" stop-opacity=".61"/><stop offset="1" stop-color="#16385E" stop-opacity="0"/></linearGradient><linearGradient id="paint3_linear" x2="1" gradientUnits="userSpaceOnUse" gradientTransform="matrix(0 23 -20 0 22 0)"><stop stop-color="#16385E" stop-opacity=".61"/><stop offset="1" stop-color="#16385E" stop-opacity="0"/></linearGradient></defs></svg>